# This file uses meters as units for non-parametric coordinates.

mtllib prop_road.mtl
g default
v -48.812634 -0.394412 -66.720280
v 48.672399 -0.394412 -66.553529
v -48.812634 2.029930 -66.720280
v 48.672399 2.029930 -66.553529
v -18.348693 2.029930 -134.793987
v 18.348693 2.029930 -134.793987
v 48.446096 2.029930 -146.301001
v 88.128052 2.029930 -101.841245
v -90.575259 2.029930 -100.275798
v -48.446096 2.029930 -146.301001
v 275.823038 2.029930 -416.984029
v 319.243207 2.029930 -360.776692
v -319.243103 2.029930 -360.776692
v -275.823038 2.029930 -416.984029
v 206.293432 -0.394412 112.844655
v 206.293432 2.029930 112.844655
v 240.526478 2.029930 69.377192
v -198.185736 -0.394412 121.652059
v -198.185736 2.029930 121.652059
v -234.420333 2.029930 79.916787
vt 0.923842 0.628484
vt 0.923842 0.391561
vt 0.929503 0.391561
vt 0.929503 0.628484
vt 0.923842 0.008487
vt 0.929503 0.008487
vt 0.332512 0.575483
vt 0.332291 0.424734
vt 0.422990 0.471626
vt 0.422990 0.528374
vt 0.379192 0.363721
vt 0.438284 0.425084
vt 0.438284 0.574916
vt 0.377111 0.640063
vt 0.723346 0.006330
vt 0.798052 0.073474
vt 0.798052 0.926526
vt 0.723346 0.993670
vt 0.093850 0.180993
vt 0.151624 0.128056
vt 0.137615 0.862502
vt 0.082144 0.806470
vt 0.929503 0.991513
vt 0.923842 0.991513
vn -0.001711 0.000000 0.999999
vn -0.001711 0.000000 0.999999
vn -0.001711 0.000000 0.999999
vn -0.001711 0.000000 0.999999
vn 0.000000 1.000000 -0.000000
vn 0.000000 1.000000 -0.000000
vn 0.000000 1.000000 -0.000000
vn 0.000000 1.000000 -0.000000
vn 0.000000 1.000000 -0.000000
vn 0.000000 1.000000 0.000000
vn 0.000000 1.000000 0.000000
vn 0.000000 1.000000 -0.000000
vn 0.000000 1.000000 0.000000
vn 0.000000 1.000000 0.000000
vn 0.000000 1.000000 0.000000
vn 0.000000 1.000000 0.000000
vn -0.751231 0.000000 0.660039
vn -0.751231 0.000000 0.660039
vn -0.751231 0.000000 0.660039
vn -0.751231 0.000000 0.660039
vn 0.000000 1.000000 -0.000000
vn 0.000000 1.000000 -0.000000
vn 0.783550 0.000000 0.621329
vn 0.783550 0.000000 0.621329
vn 0.783550 0.000000 0.621329
vn 0.783550 0.000000 0.621329
vn 0.000000 1.000000 -0.000000
vn 0.000000 1.000000 -0.000000
s off
g highc_stage_blockout__6_:polySurface2 highc_stage_blockout__6_:pCube43
usemtl initialShadingGroup
f 1/1/1 2/2/2 4/3/3 3/4/4
s 1
f 3/7/5 4/8/6 6/9/7 5/10/8
f 6/9/7 4/8/6 8/11/9 7/12/10
f 3/7/5 5/10/8 10/13/11 9/14/12
f 7/12/10 8/11/9 12/15/13 11/16/14
f 9/14/12 10/13/11 14/17/15 13/18/16
s off
f 4/3/17 2/2/18 15/5/19 16/6/20
s 1
f 8/11/9 4/8/6 16/19/21 17/20/22
s off
f 1/1/23 3/4/24 19/23/25 18/24/26
s 1
f 3/7/5 9/14/12 20/21/27 19/22/28
